<svg xmlns="http://www.w3.org/2000/svg" viewBox="0 0 413.58 44.36"><g id="Layer_2" data-name="Layer 2"><g id="towusa"><path d="M46.64,1.17V11.69H29.74V43.18H16.9V11.69H0V1.17Z"/><path d="M103,22.18a31.74,31.74,0,0,1-1.14,9,18,18,0,0,1-3.24,6.34,15,15,0,0,1-5.47,4,28.29,28.29,0,0,1-7.44,2.16,63,63,0,0,1-9.52.63,60,60,0,0,1-9.1-.62,28.82,28.82,0,0,1-7.38-2.15,16.66,16.66,0,0,1-5.64-4.05,17.65,17.65,0,0,1-3.47-6.35,29.37,29.37,0,0,1-1.24-9,28.06,28.06,0,0,1,1.69-10.34A15.45,15.45,0,0,1,56.24,5,22.49,22.49,0,0,1,64.58,1.2,50.45,50.45,0,0,1,76.2,0,50.24,50.24,0,0,1,87.79,1.2,22.61,22.61,0,0,1,96.14,5a15.43,15.43,0,0,1,5.17,6.87A28.05,28.05,0,0,1,103,22.18Zm-14,0a17.8,17.8,0,0,0-.8-5.76,7.48,7.48,0,0,0-2.52-3.59,10.29,10.29,0,0,0-4-1.8,25.62,25.62,0,0,0-5.54-.51,25.45,25.45,0,0,0-5.51.51,10.36,10.36,0,0,0-4,1.8,7.66,7.66,0,0,0-2.55,3.59,17.21,17.21,0,0,0-.83,5.76,17.18,17.18,0,0,0,.83,5.75,7.61,7.61,0,0,0,2.55,3.59,10.53,10.53,0,0,0,4,1.81,25.45,25.45,0,0,0,5.51.51,25.12,25.12,0,0,0,5.47-.51,10.55,10.55,0,0,0,4-1.81,7.54,7.54,0,0,0,2.57-3.6A17.24,17.24,0,0,0,89,22.18Z"/><path d="M162.39,1.17h14l-14,42h-14l-8.15-24.49-8.17,24.49h-14l-14-42h14l8.35,25,8.35-25h10.95l8.35,25Z"/><path d="M179.38,22.18l3.7-21h19.27l-3.72,21a25.31,25.31,0,0,0-.23,3.19,6.59,6.59,0,0,0,.48,2.58A9.56,9.56,0,0,0,200,30a5.89,5.89,0,0,0,1.78,1.54,13.89,13.89,0,0,0,2.34,1.1,17.77,17.77,0,0,0,2.86.72c1.08.18,2.19.31,3.34.39s2.39.12,3.76.12a49.87,49.87,0,0,0,5.92-.31,24.62,24.62,0,0,0,5-1.11,14.11,14.11,0,0,0,4.08-2.1A11.37,11.37,0,0,0,232,27a14,14,0,0,0,1.67-4.8l3.69-21h19.25l-3.69,21a25.62,25.62,0,0,1-2.61,7.7,20.09,20.09,0,0,1-4.65,5.83,29.46,29.46,0,0,1-6.32,4.1,35.82,35.82,0,0,1-7.91,2.69,75.7,75.7,0,0,1-9,1.42q-4.62.44-10.1.44a101.61,101.61,0,0,1-11.83-.62,45.82,45.82,0,0,1-9.68-2.17,20.72,20.72,0,0,1-7.22-4,13.65,13.65,0,0,1-3.9-6.35A19.63,19.63,0,0,1,179.38,22.18Z"/><path d="M297.28,16.93q6.68.15,11,.37c2.88.15,5.89.4,9.05.75a38.68,38.68,0,0,1,7.48,1.43,23.28,23.28,0,0,1,5,2.33,6.79,6.79,0,0,1,3,3.55,10,10,0,0,1,.24,5h-.06a12.29,12.29,0,0,1-1.7,4.44,13.15,13.15,0,0,1-3.18,3.44,18.87,18.87,0,0,1-4.72,2.54,40.38,40.38,0,0,1-6,1.75,64.4,64.4,0,0,1-7.34,1.1q-4.17.42-8.44.57c-2.85.11-6.05.17-9.58.17q-7.89,0-13.42-.34a76.59,76.59,0,0,1-10.37-1.31,22.65,22.65,0,0,1-7.53-2.65,10,10,0,0,1-3.94-4.39,10.78,10.78,0,0,1-.57-6.49h19.25q-.46,2.76,3.28,3.78,3.1.85,11.92.88H294l5.34,0c1.16,0,2.65,0,4.47-.1a32.88,32.88,0,0,0,4-.31c.88-.14,1.82-.34,2.83-.6a5.1,5.1,0,0,0,2.18-1,2.53,2.53,0,0,0,.82-1.47,2.12,2.12,0,0,0-.23-1.57A3,3,0,0,0,312,27.7a13,13,0,0,0-2.3-.69,24.88,24.88,0,0,0-3.22-.39c-1.29-.09-2.58-.15-3.86-.19l-4.49-.12-3.05-.06H295c-4.41-.1-8.06-.22-10.93-.37s-5.84-.39-8.9-.73a37.82,37.82,0,0,1-7.27-1.38A21.51,21.51,0,0,1,263,21.55a6.57,6.57,0,0,1-2.88-3.39,9.26,9.26,0,0,1-.21-4.74,11.68,11.68,0,0,1,1.61-4.24,12.58,12.58,0,0,1,3-3.28,18.15,18.15,0,0,1,4.53-2.41,39.8,39.8,0,0,1,5.8-1.7A62,62,0,0,1,282.08.72c2.71-.27,5.48-.45,8.31-.56s6-.16,9.52-.16q7.89,0,13.33.35a75.42,75.42,0,0,1,10.14,1.31,21.18,21.18,0,0,1,7.27,2.63,9.86,9.86,0,0,1,3.73,4.38,11.35,11.35,0,0,1,.48,6.51H315.62q.47-2.7-2.76-3.72c-1.85-.59-5.52-.9-11-.94h-4.16a132.32,132.32,0,0,0-13.45.41q-4.57.59-4.92,2.49a1.78,1.78,0,0,0,.41,1.55,3.78,3.78,0,0,0,1.78,1,19.07,19.07,0,0,0,3,.54c1.19.13,2.56.21,4.12.26s3.23.1,5.05.14h1.16l1.08,0h1.31Z"/><path d="M392.55,43.18,390,38.53h-33.9l-4.27,4.65H330.73L369,1.17h21l23.52,42ZM383.94,28,377,15.5,365.51,28Z"/></g></g></svg>